<svg width="68" height="55" viewBox="0 0 68 55" fill="none" xmlns="http://www.w3.org/2000/svg">
<path d="M25.8869 37.1724L22.6199 31.2424H21.7024V37.1724H17.8759V21.4636H24.2982C25.5364 21.4636 26.5881 21.6799 27.4533 22.1125C28.3335 22.5452 28.9899 23.1419 29.4225 23.9027C29.8551 24.6486 30.0715 25.484 30.0715 26.409C30.0715 27.4532 29.7731 28.3856 29.1764 29.2061C28.5946 30.0266 27.7293 30.6084 26.5806 30.9515L30.2057 37.1724H25.8869ZM21.7024 28.5348H24.0744C24.7755 28.5348 25.2977 28.3632 25.6408 28.0201C25.9988 27.677 26.1778 27.1922 26.1778 26.5656C26.1778 25.9539 25.9988 25.4766 25.6408 25.1335C25.2977 24.7754 24.7755 24.5964 24.0744 24.5964H21.7024V28.5348ZM36.3 24.4845V27.7516H41.4244V30.6382H36.3V34.1514H42.0957V37.1724H32.4735V21.4636H42.0957V24.4845H36.3ZM54.0902 29.1166C55.0002 29.3105 55.7312 29.7655 56.2831 30.4816C56.8351 31.1827 57.1111 31.9883 57.1111 32.8983C57.1111 34.2111 56.6486 35.2554 55.7237 36.0311C54.8137 36.792 53.5382 37.1724 51.8972 37.1724H44.5799V21.4636H51.6511C53.2473 21.4636 54.493 21.8291 55.3881 22.5601C56.2981 23.2911 56.7531 24.2831 56.7531 25.5362C56.7531 26.4612 56.5069 27.2294 56.0146 27.8411C55.5372 28.4527 54.8958 28.8779 54.0902 29.1166ZM48.4064 27.8411H50.9126C51.5392 27.8411 52.0166 27.6994 52.3448 27.4159C52.6879 27.1325 52.8594 26.7222 52.8594 26.1852C52.8594 25.6332 52.6879 25.2155 52.3448 24.9321C52.0166 24.6337 51.5392 24.4845 50.9126 24.4845H48.4064V27.8411ZM51.2259 34.1291C51.8674 34.1291 52.3597 33.9799 52.7028 33.6815C53.0608 33.3832 53.2399 32.9505 53.2399 32.3837C53.2399 31.8317 53.0534 31.3991 52.6804 31.0858C52.3224 30.7576 51.8226 30.5935 51.1812 30.5935H48.4064V34.1291H51.2259ZM63.157 21.4636V37.1724H59.3305V21.4636H63.157Z" fill="black"/>
<path d="M36.2369 41.9796C32.7468 44.954 28.7886 46.961 24.8896 47.7331C20.9907 48.5052 17.3363 48.0058 14.4132 46.3014C11.4902 44.597 9.43729 41.7685 8.52811 38.1928C7.61894 34.6172 7.89665 30.4641 9.32423 26.287C10.7518 22.1099 13.2615 18.1071 16.5189 14.812C19.7762 11.5168 23.6266 9.08577 27.557 7.84274C31.4874 6.59971 35.3112 6.60373 38.5188 7.85426C41.7265 9.10479 44.1657 11.5424 45.5115 14.8424L40.7975 18.1264C39.8009 15.6826 37.9945 13.8773 35.6191 12.9512C33.2436 12.0252 30.4119 12.0222 27.5012 12.9427C24.5906 13.8632 21.7391 15.6636 19.3269 18.1038C16.9146 20.5441 15.056 23.5084 13.9988 26.6017C12.9416 29.6951 12.736 32.7707 13.4093 35.4186C14.0826 38.0666 15.6028 40.1612 17.7675 41.4234C19.9322 42.6857 22.6385 43.0555 25.5259 42.4837C28.4132 41.9119 31.3445 40.4257 33.9292 38.2229L36.2369 41.9796Z" fill="black"/>
</svg>
